<svg width="32" height="32" viewBox="0 0 32 32" fill="none" xmlns="http://www.w3.org/2000/svg">
  <rect width="32" height="32" rx="8" fill="#0A0A0C"/>
  <!-- Glow effect -->
  <path d="M13.937 19.5A2 2 0 0 0 12.5 18.063l-6.135-1.582a.5.5 0 0 1 0-.962L12.5 13.936A2 2 0 0 0 13.937 12.5l1.582-6.135a.5.5 0 0 1 .963 0L18.063 12.5A2 2 0 0 0 19.5 13.937l6.135 1.581a.5.5 0 0 1 0 .964L19.5 18.063a2 2 0 0 0-1.437 1.437l-1.582 6.135a.5.5 0 0 1-.963 0z" fill="white" filter="blur(2px)" opacity="0.3"/>
  <!-- Main shape -->
  <path d="M13.937 19.5A2 2 0 0 0 12.5 18.063l-6.135-1.582a.5.5 0 0 1 0-.962L12.5 13.936A2 2 0 0 0 13.937 12.5l1.582-6.135a.5.5 0 0 1 .963 0L18.063 12.5A2 2 0 0 0 19.5 13.937l6.135 1.581a.5.5 0 0 1 0 .964L19.5 18.063a2 2 0 0 0-1.437 1.437l-1.582 6.135a.5.5 0 0 1-.963 0z" fill="white"/>
  <!-- Shadow -->
  <path d="M13.937 19.5A2 2 0 0 0 12.5 18.063l-6.135-1.582a.5.5 0 0 1 0-.962L12.5 13.936A2 2 0 0 0 13.937 12.5l1.582-6.135a.5.5 0 0 1 .963 0L18.063 12.5A2 2 0 0 0 19.5 13.937l6.135 1.581a.5.5 0 0 1 0 .964L19.5 18.063a2 2 0 0 0-1.437 1.437l-1.582 6.135a.5.5 0 0 1-.963 0z" fill="#0A0A0C" opacity="0.6" transform="translate(1 1) scale(0.99)"/>
</svg> 